<svg id="icons" enable-background="new 0 0 64 64" height="512" viewBox="0 0 64 64" width="512" xmlns="http://www.w3.org/2000/svg"><path d="m59 48.5v10h-10v-10h5z" fill="#e6e9ed"/><path d="m58 34.5-4 4h-10l4-4h1.99 3 3z" fill="#ccd1d9"/><path d="m58 34.5v10l-4 4v-10z" fill="#aab2bd"/><path d="m44 44.5v4h-5l4-4z" fill="#ccd1d9"/><path d="m55.99 9.5v24.99.01h-3v-.01-20.99h-3v-4z" fill="#f6bb42"/><path d="m49 48.5v10h-10v-10h5z" fill="#e6e9ed"/><path d="m52.99 13.5v20.99.01h-3v-.01-20.99z" fill="#e6e9ed"/><path d="m63 44.5v10l-4 4v-10z" fill="#aab2bd"/><path d="m54 38.5v10h-5-5v-4-6z" fill="#e6e9ed"/><path d="m63 44.5-4 4h-5l4-4z" fill="#ccd1d9"/><path d="m21 9.5h-17v-4h13z" fill="#f6bb42"/><path d="m49.99 34.49v.01h-1.99l-4 4v6h-1l-4 4h-.03-34.97c-1.66 0-3-1.35-3-3v-.01-35.99h3 17 28.99v4z" fill="#ffce54"/><path d="m3.999 49.496c-2.206 0-4-1.794-4-4 0-.553.447-1 1-1s1 .447 1 1c0 1.103.897 2 2 2 .553 0 1 .447 1 1s-.447 1-1 1z"/><path d="m49.987 35.486c-.553 0-1-.447-1-1v-24.986c0-.552.447-1 1-1s1 .448 1 1v24.987c0 .552-.447.999-1 .999z"/><path d="m55.987 35.486c-.553 0-1-.447-1-1v-24.989c0-.552.447-1 1-1s1 .448 1 1v24.99c0 .552-.447.999-1 .999z"/><path d="m20.999 10.5c-.256 0-.512-.098-.707-.293l-3.707-3.707h-11.586v3c0 .552-.447 1-1 1s-1-.448-1-1v-4c0-.552.447-1 1-1h13c.266 0 .52.105.707.293l4 4c.391.391.391 1.023 0 1.414-.195.195-.451.293-.707.293z"/><path d="m38.974 49.496h-34.973c-.553 0-1-.447-1-1s.447-1 1-1h34.973c.553 0 1 .447 1 1s-.448 1-1 1z"/><path d="m52.987 35.486c-.553 0-1-.447-1-1v-20.986c0-.552.447-1 1-1s1 .448 1 1v20.987c0 .552-.447.999-1 .999z"/><path d="m52.987 14.5h-3c-.553 0-1-.448-1-1s.447-1 1-1h3c.553 0 1 .448 1 1s-.447 1-1 1z"/><path d="m55.991 10.497h-54.992c-.553 0-1-.448-1-1s.447-1 1-1h54.992c.553 0 1 .448 1 1s-.447 1-1 1z"/><path d="m.999 46.492c-.553 0-1-.447-1-1v-35.992c0-.552.447-1 1-1s1 .448 1 1v35.993c0 .552-.447.999-1 .999z"/><path d="m48.999 59.5h-10.002c-.553 0-1-.447-1-1v-10c0-.553.447-1 1-1h10.002c.553 0 1 .447 1 1v10c0 .553-.447 1-1 1zm-9.002-2h8.002v-8h-8.002z"/><path d="m59.001 59.5h-10.002c-.553 0-1-.447-1-1v-10c0-.553.447-1 1-1h10.002c.553 0 1 .447 1 1v10c0 .553-.447 1-1 1zm-9.002-2h8.002v-8h-8.002z"/><path d="m59.001 59.5c-.256 0-.512-.098-.707-.293-.391-.391-.391-1.023 0-1.414l4-4c.391-.391 1.023-.391 1.414 0s.391 1.023 0 1.414l-4 4c-.195.195-.451.293-.707.293z"/><path d="m59.001 49.5c-.256 0-.512-.098-.707-.293-.391-.391-.391-1.023 0-1.414l4-4c.391-.391 1.023-.391 1.414 0s.391 1.023 0 1.414l-4 4c-.195.195-.451.293-.707.293z"/><path d="m54 49.5c-.256 0-.512-.098-.707-.293-.391-.391-.391-1.023 0-1.414l4-4.002c.391-.391 1.023-.391 1.414 0s.391 1.023 0 1.414l-4 4.002c-.195.195-.451.293-.707.293z"/><path d="m63.001 55.5c-.553 0-1-.447-1-1v-10c0-.553.447-1 1-1s1 .447 1 1v10c0 .553-.447 1-1 1z"/><path d="m63.001 45.5h-5.001c-.553 0-1-.447-1-1s.447-1 1-1h5.001c.553 0 1 .447 1 1s-.447 1-1 1z"/><path d="m54 49.5h-10.002c-.553 0-1-.447-1-1v-10c0-.553.447-1 1-1h10.002c.553 0 1 .447 1 1v10c0 .553-.447 1-1 1zm-9.002-2h8.002v-8h-8.002z"/><path d="m54 39.498c-.256 0-.512-.098-.707-.293-.391-.391-.391-1.023 0-1.414l4-4c.391-.391 1.023-.391 1.414 0s.391 1.023 0 1.414l-4 4c-.195.195-.451.293-.707.293z"/><path d="m58 45.5c-.553 0-1-.447-1-1v-10.002c0-.553.447-1 1-1s1 .447 1 1v10.002c0 .553-.447 1-1 1z"/><path d="m43.998 39.5c-.256 0-.512-.098-.707-.293-.391-.391-.391-1.023 0-1.414l4.002-4.002c.391-.391 1.023-.391 1.414 0s.391 1.023 0 1.414l-4.002 4.002c-.195.195-.451.293-.707.293z"/><path d="m58 35.498h-10c-.553 0-1-.447-1-1s.447-1 1-1h10c.553 0 1 .447 1 1s-.447 1-1 1z"/><path d="m38.997 49.5c-.256 0-.512-.098-.707-.293-.391-.391-.391-1.023 0-1.414l4-4c.391-.391 1.023-.391 1.414 0s.391 1.023 0 1.414l-4 4c-.195.195-.451.293-.707.293z"/><path d="m43.998 45.5h-1.001c-.553 0-1-.447-1-1s.447-1 1-1h1.001c.553 0 1 .447 1 1s-.447 1-1 1z"/><path d="m39.999 26.501h-29.012c-.553 0-1-.448-1-1s.447-1 1-1h29.012c.553 0 1 .448 1 1s-.447 1-1 1z"/><path d="m39.999 30.501h-29.012c-.553 0-1-.448-1-1s.447-1 1-1h29.012c.553 0 1 .448 1 1s-.447 1-1 1z"/><path d="m30.999 34.504h-11.012c-.553 0-1-.447-1-1 0-.552.447-1 1-1h11.012c.553 0 1 .448 1 1 0 .553-.447 1-1 1z"/></svg>